# xmcd
# 
# Track frame offsets:
#     150
#     19450
#     37718
#     57547
# 
# Disc length: 1089
# 
# Revision: 0
# Processed by: cddbd v1.5.2PL0 Copyright (c) Steve Scherf et al.
# Submitted via: BonkEnc v1.0.15
# 
DISCID=2d043f04
DTITLE=Stars - The Séance E.P.
DYEAR=2010
DGENRE=Pop/Rock
TTITLE0=Opinions Versus the Sun (Stars vs The Album Leaf)
TTITLE1=The Five Ghosts
TTITLE2=The Black House, The Blue Sky (Stars vs Montag)
TTITLE3=The Dead Beg for More (Stars vs Of Montreal)
EXTD=
EXTT0=
EXTT1=
EXTT2=
EXTT3=
PLAYORDER=
